<svg xmlns="http://www.w3.org/2000/svg" viewBox="200 800 1700 450" preserveAspectRatio="xMidYMid meet">
<g transform="translate(0.000000,2048.000000) scale(0.100000,-0.100000)"
fill="#000000" stroke="none">
<path d="M2485 11787 c-67 -23 -101 -44 -143 -92 -93 -105 -98 -272 -12 -383 12 -15 148 -155 303 -312 155 -157 424 -429 597 -605 1612 -1637 1628 -1653 1685 -1682 35 -18 71 -28 121 -31 62 -4 79 -1 133 23 114 52 176 148 176 275 0 63 -5 84 -29 129 -31 60 -15 43 -1266 1311 -1363 1381 -1299 1318 -1356 1346 -63 31 -152 40 -209 21z"/>
<path d="M4973 11786 c-88 -29 -137 -72 -473 -416 -384 -394 -391 -403 -392 -530 -1 -120 9 -133 383 -513 181 -185 352 -352 378 -371 134 -99 316 -72 418 62 43 56 67 140 60 204 -12 100 -40 138 -282 386 l-228 234 124 126 c364 370 389 403 389 518 0 127 -58 227 -163 278 -64 32 -156 41 -214 22z"/>
<path d="M12055 11153 c-319 -39 -556 -255 -642 -582 -37 -139 -44 -394 -15 -532 85 -411 359 -649 747 -649 217 0 388 68 519 205 74 78 155 234 169 328 l6 37 -108 0 -107 0 -18 -59 c-51 -170 -194 -284 -393 -314 -60 -9 -88 -8 -160 6 -120 23 -184 57 -273 147 -83 83 -127 156 -159 267 -23 77 -43 249 -36 310 2 21 6 61 10 89 26 234 150 424 334 512 66 32 84 36 178 40 172 8 283 -30 386 -130 53 -52 127 -180 127 -219 0 -16 8 -19 63 -20 34 0 82 -1 105 -2 24 -2 45 0 47 3 9 14 -19 112 -49 177 -65 135 -147 225 -273 297 -132 74 -307 108 -458 89z"/>
<path d="M13978 11149 c-151 -16 -294 -79 -398 -176 -159 -147 -245 -334 -271 -586 -22 -217 10 -410 96 -582 100 -199 248 -326 455 -390 73 -22 276 -31 365 -16 267 47 483 241 574 516 40 120 51 195 51 346 0 389 -143 664 -421 809 -134 70 -288 97 -451 79z m237 -204 c187 -49 332 -207 397 -432 20 -67 23 -101 23 -243 0 -143 -3 -176 -23 -245 -60 -208 -190 -358 -357 -414 -197 -65 -401 -18 -545 128 -76 76 -118 145 -154 251 -48 144 -53 369 -11 530 53 207 213 381 390 424 80 19 207 20 280 1z"/>
<path d="M5980 11120 c0 -13 183 -528 400 -1125 100 -275 187 -517 193 -538 l11 -37 204 2 204 3 25 65 c13 36 78 216 145 400 310 863 438 1223 438 1231 0 6 -77 8 -177 7 l-176 -3 -52 -150 c-28 -82 -79 -231 -112 -330 -224 -662 -286 -841 -292 -848 -7 -7 -138 368 -424 1210 l-42 123 -172 0 c-107 0 -173 -4 -173 -10z"/>
<path d="M8039 11053 c0 -43 -2 -428 -4 -855 l-3 -778 573 0 c450 0 574 3 577 13 3 10 3 105 -1 220 l-1 37 -410 0 -410 0 0 230 0 230 373 2 372 3 3 133 3 132 -376 0 -375 0 0 220 0 220 410 0 410 0 0 113 c0 61 -3 122 -6 135 l-6 22 -564 0 -564 0 -1 -77z"/>
<path d="M9670 10995 l0 -135 425 0 c234 0 425 -2 425 -5 0 -6 -129 -190 -416 -592 -123 -171 -269 -378 -326 -460 l-103 -148 -5 -118 -5 -117 635 2 635 3 3 40 c2 22 1 82 -3 133 l-7 92 -429 0 c-406 0 -429 1 -420 18 5 9 74 109 153 222 355 505 617 879 651 929 l37 53 0 109 0 109 -625 0 -625 0 0 -135z"/>
<path d="M15410 10276 l0 -856 108 0 108 0 0 335 -1 335 212 0 211 0 77 -142 c43 -79 125 -230 183 -335 l104 -193 125 0 125 0 -20 33 c-33 53 -153 271 -247 447 -48 91 -96 180 -107 199 -10 18 -18 34 -16 35 2 1 28 13 59 28 73 34 119 75 169 150 75 113 105 271 76 407 -40 188 -144 310 -322 379 l-69 27 -387 3 -388 3 0 -855z m693 663 c78 -13 144 -47 194 -102 51 -55 73 -123 73 -222 0 -146 -54 -241 -169 -298 l-65 -32 -257 -3 -256 -3 2 323 c2 178 4 329 4 336 1 10 46 12 209 11 114 0 233 -5 265 -10z"/>
<path d="M17150 10275 l0 -855 528 0 c291 0 531 2 533 4 2 2 3 43 1 90 l-3 86 -425 0 -424 0 0 295 0 295 390 0 390 0 0 95 0 95 -390 0 -390 0 0 285 0 285 420 0 420 0 0 90 0 90 -525 0 -525 0 0 -855z"/>
<path d="M2478 10581 c-80 -26 -167 -113 -194 -193 -22 -68 -16 -169 15 -228 32 -61 22 -52 745 -784 711 -720 683 -696 811 -696 85 0 153 28 209 86 59 61 79 108 84 200 7 135 -1 148 -310 462 -742 755 -1104 1113 -1147 1134 -48 23 -167 34 -213 19z"/>
<path d="M2469 9377 c-86 -32 -131 -75 -180 -167 -18 -36 -23 -61 -24 -125 0 -111 28 -166 139 -273 104 -100 148 -124 243 -130 86 -5 143 11 213 63 106 78 142 235 83 356 -35 70 -190 227 -257 259 -59 28 -165 36 -217 17z"/>
</g>
</svg>
